<?xml version="1.0" encoding="UTF-8" standalone="no"?>
<!-- Generator: Adobe Illustrator 19.0.0, SVG Export Plug-In . SVG Version: 6.00 Build 0)  -->

<svg
   xmlns:dc="http://purl.org/dc/elements/1.1/"
   xmlns:cc="http://creativecommons.org/ns#"
   xmlns:rdf="http://www.w3.org/1999/02/22-rdf-syntax-ns#"
   xmlns:svg="http://www.w3.org/2000/svg"
   xmlns="http://www.w3.org/2000/svg"
   xmlns:sodipodi="http://sodipodi.sourceforge.net/DTD/sodipodi-0.dtd"
   xmlns:inkscape="http://www.inkscape.org/namespaces/inkscape"
   version="1.1"
   id="Capa_1"
   x="0px"
   y="0px"
   viewBox="0 0 60 60"
   style="enable-background:new 0 0 60 60;"
   xml:space="preserve"
   sodipodi:docname="sun-weather.svg"
   inkscape:version="0.92.1 15371"><metadata
     id="metadata4671"><rdf:RDF><cc:Work
         rdf:about=""><dc:format>image/svg+xml</dc:format><dc:type
           rdf:resource="http://purl.org/dc/dcmitype/StillImage" /></cc:Work></rdf:RDF></metadata><defs
     id="defs4669" /><sodipodi:namedview
     pagecolor="#ffffff"
     bordercolor="#666666"
     borderopacity="1"
     objecttolerance="10"
     gridtolerance="10"
     guidetolerance="10"
     inkscape:pageopacity="0"
     inkscape:pageshadow="2"
     inkscape:window-width="1366"
     inkscape:window-height="744"
     id="namedview4667"
     showgrid="false"
     inkscape:zoom="9.3"
     inkscape:cx="30"
     inkscape:cy="30"
     inkscape:window-x="0"
     inkscape:window-y="24"
     inkscape:window-maximized="1"
     inkscape:current-layer="Capa_1" /><g
     id="g4630"><path
       style="fill:#ffff05;fill-opacity:1"
       d="M30,0c-0.552,0-1,0.448-1,1v6c0,0.552,0.448,1,1,1s1-0.448,1-1V1C31,0.448,30.552,0,30,0z"
       id="path4598" /><path
       style="fill:#F0C419;"
       d="M30,52c-0.552,0-1,0.448-1,1v6c0,0.552,0.448,1,1,1s1-0.448,1-1v-6C31,52.448,30.552,52,30,52z"
       id="path4600" /><path
       style="fill:#ffff03;fill-opacity:1"
       d="M59,29h-6c-0.552,0-1,0.448-1,1s0.448,1,1,1h6c0.552,0,1-0.448,1-1S59.552,29,59,29z"
       id="path4602" /><path
       style="fill:#ffff01;fill-opacity:1"
       d="M8,30c0-0.552-0.448-1-1-1H1c-0.552,0-1,0.448-1,1s0.448,1,1,1h6C7.552,31,8,30.552,8,30z"
       id="path4604" /><path
       style="fill:#ffff16;fill-opacity:1"
       d="M46.264,14.736c0.256,0,0.512-0.098,0.707-0.293l5.736-5.736c0.391-0.391,0.391-1.023,0-1.414   s-1.023-0.391-1.414,0l-5.736,5.736c-0.391,0.391-0.391,1.023,0,1.414C45.752,14.639,46.008,14.736,46.264,14.736z"
       id="path4606" /><path
       style="fill:#F0C419;"
       d="M13.029,45.557l-5.736,5.736c-0.391,0.391-0.391,1.023,0,1.414C7.488,52.902,7.744,53,8,53   s0.512-0.098,0.707-0.293l5.736-5.736c0.391-0.391,0.391-1.023,0-1.414S13.42,45.166,13.029,45.557z"
       id="path4608" /><path
       style="fill:#F0C419;"
       d="M46.971,45.557c-0.391-0.391-1.023-0.391-1.414,0s-0.391,1.023,0,1.414l5.736,5.736   C51.488,52.902,51.744,53,52,53s0.512-0.098,0.707-0.293c0.391-0.391,0.391-1.023,0-1.414L46.971,45.557z"
       id="path4610" /><path
       style="fill:#ffff06;fill-opacity:1"
       d="M8.707,7.293c-0.391-0.391-1.023-0.391-1.414,0s-0.391,1.023,0,1.414l5.736,5.736   c0.195,0.195,0.451,0.293,0.707,0.293s0.512-0.098,0.707-0.293c0.391-0.391,0.391-1.023,0-1.414L8.707,7.293z"
       id="path4612" /><path
       style="fill:#ffff00;fill-opacity:1"
       d="M50.251,21.404c0.162,0.381,0.532,0.61,0.921,0.61c0.13,0,0.263-0.026,0.39-0.08l2.762-1.172   c0.508-0.216,0.746-0.803,0.53-1.311s-0.804-0.746-1.311-0.53l-2.762,1.172C50.272,20.309,50.035,20.896,50.251,21.404z"
       id="path4614" /><path
       style="fill:#F0C419;"
       d="M9.749,38.596c-0.216-0.508-0.803-0.746-1.311-0.53l-2.762,1.172   c-0.508,0.216-0.746,0.803-0.53,1.311c0.162,0.381,0.532,0.61,0.921,0.61c0.13,0,0.263-0.026,0.39-0.08l2.762-1.172   C9.728,39.691,9.965,39.104,9.749,38.596z"
       id="path4616" /><path
       style="fill:#F0C419;"
       d="M54.481,38.813L51.7,37.688c-0.511-0.207-1.095,0.041-1.302,0.553   c-0.207,0.512,0.041,1.095,0.553,1.302l2.782,1.124c0.123,0.049,0.25,0.073,0.374,0.073c0.396,0,0.771-0.236,0.928-0.626   C55.241,39.603,54.994,39.02,54.481,38.813z"
       id="path4618" /><path
       style="fill:#ffff00;fill-opacity:1"
       d="M5.519,21.188L8.3,22.312c0.123,0.049,0.25,0.073,0.374,0.073c0.396,0,0.771-0.236,0.928-0.626   c0.207-0.512-0.041-1.095-0.553-1.302l-2.782-1.124c-0.513-0.207-1.095,0.04-1.302,0.553C4.759,20.397,5.006,20.98,5.519,21.188z"
       id="path4620" /><path
       style="fill:#F0C419;"
       d="M39.907,50.781c-0.216-0.508-0.803-0.745-1.311-0.53c-0.508,0.216-0.746,0.803-0.53,1.311   l1.172,2.762c0.162,0.381,0.532,0.61,0.921,0.61c0.13,0,0.263-0.026,0.39-0.08c0.508-0.216,0.746-0.803,0.53-1.311L39.907,50.781z"
       id="path4622" /><path
       style="fill:#ffff00;fill-opacity:1"
       d="M21.014,9.829c0.13,0,0.263-0.026,0.39-0.08c0.508-0.216,0.746-0.803,0.53-1.311l-1.172-2.762   c-0.215-0.509-0.802-0.747-1.311-0.53c-0.508,0.216-0.746,0.803-0.53,1.311l1.172,2.762C20.254,9.6,20.625,9.829,21.014,9.829z"
       id="path4624" /><path
       style="fill:#F0C419;"
       d="M21.759,50.398c-0.511-0.205-1.095,0.04-1.302,0.553l-1.124,2.782   c-0.207,0.512,0.041,1.095,0.553,1.302c0.123,0.049,0.25,0.073,0.374,0.073c0.396,0,0.771-0.236,0.928-0.626l1.124-2.782   C22.519,51.188,22.271,50.605,21.759,50.398z"
       id="path4626" /><path
       style="fill:#ffff00;fill-opacity:1"
       d="M38.615,9.675c0.396,0,0.771-0.236,0.928-0.626l1.124-2.782c0.207-0.512-0.041-1.095-0.553-1.302   c-0.511-0.207-1.095,0.041-1.302,0.553L37.688,8.3c-0.207,0.512,0.041,1.095,0.553,1.302C38.364,9.651,38.491,9.675,38.615,9.675z"
       id="path4628" /></g><circle
     style="fill:#fffff1;fill-opacity:0.00497512"
     cx="30"
     cy="30"
     r="20"
     id="circle4632" /><circle
     style="fill:#fff200;fill-opacity:1"
     cx="30"
     cy="30"
     r="15"
     id="circle4634" /><g
     id="g4636" /><g
     id="g4638" /><g
     id="g4640" /><g
     id="g4642" /><g
     id="g4644" /><g
     id="g4646" /><g
     id="g4648" /><g
     id="g4650" /><g
     id="g4652" /><g
     id="g4654" /><g
     id="g4656" /><g
     id="g4658" /><g
     id="g4660" /><g
     id="g4662" /><g
     id="g4664" /><path
     style="opacity:1;fill:#ffff03;fill-opacity:1;stroke:#ffff33;stroke-width:0.10752688;stroke-opacity:1"
     d="m 52.322581,40.058267 c -0.857527,-0.353365 -1.643818,-0.743813 -1.747312,-0.867663 -0.474649,-0.568002 -0.03429,-1.491679 0.711154,-1.491679 0.44635,0 3.3971,1.209417 3.589921,1.471392 0.142581,0.193717 0.179043,0.760296 0.06761,1.050672 -0.0785,0.204566 -0.591689,0.490615 -0.868727,0.484224 -0.106431,-0.0025 -0.895124,-0.293581 -1.752651,-0.646946 z"
     id="path4673"
     inkscape:connector-curvature="0" /><path
     style="opacity:1;fill:#ffff03;fill-opacity:1;stroke:#ffff33;stroke-width:0.10752688;stroke-opacity:1"
     d="m 48.480528,49.820548 c -3.013438,-3.013439 -3.147195,-3.164453 -3.147195,-3.553275 0,-0.554556 0.379384,-0.93394 0.93394,-0.93394 0.388867,0 0.540144,0.134064 3.568849,3.162769 l 3.162768,3.162768 -0.06571,0.412501 c -0.08174,0.513161 -0.493876,0.896371 -0.964028,0.896371 -0.304098,0 -0.685572,-0.344139 -3.488627,-3.147194 z"
     id="path4675"
     inkscape:connector-curvature="0" /><path
     style="opacity:1;fill:#ffff03;fill-opacity:1;stroke:#ffff33;stroke-width:0.10752688;stroke-opacity:1"
     d="m 39.600542,54.672308 c -0.18033,-0.159199 -0.529986,-0.830832 -0.943384,-1.812093 -0.573428,-1.361113 -0.645266,-1.606939 -0.565609,-1.935484 0.123623,-0.50988 0.697481,-0.811297 1.206663,-0.633795 0.393708,0.137247 0.492013,0.305612 1.29957,2.225765 0.589451,1.401554 0.626762,1.749071 0.226664,2.111154 -0.107593,0.09737 -0.362517,0.204119 -0.566498,0.237221 -0.290981,0.04722 -0.432602,0.0057 -0.657406,-0.192768 z"
     id="path4677"
     inkscape:connector-curvature="0" /><path
     style="opacity:1;fill:#ffff03;fill-opacity:1;stroke:#ffff33;stroke-width:0.10752688;stroke-opacity:1"
     d="M 29.560793,59.848712 C 29.431594,59.796657 29.274336,59.657743 29.21133,59.540016 29.137252,59.4016 29.096774,58.133275 29.096774,55.950544 v -3.375423 l 0.27147,-0.255032 c 0.379979,-0.356972 0.98008,-0.333049 1.31153,0.05228 0.243775,0.283405 0.244941,0.300967 0.241538,3.638998 -0.0036,3.525241 -0.0079,3.558304 -0.500265,3.820527 -0.272271,0.145012 -0.529588,0.150042 -0.860254,0.01681 z"
     id="path4679"
     inkscape:connector-curvature="0" /><path
     style="opacity:1;fill:#ffff03;fill-opacity:1;stroke:#ffff33;stroke-width:0.10752688;stroke-opacity:1"
     d="m 19.575758,54.746823 c -0.154943,-0.154942 -0.26393,-0.388654 -0.26393,-0.56597 0,-0.438805 1.231594,-3.378629 1.509803,-3.603909 0.5524,-0.447306 1.50095,-0.0103 1.50095,0.691496 0,0.404348 -1.132122,3.182726 -1.426319,3.500377 -0.317419,0.342726 -0.966598,0.331913 -1.320504,-0.02199 z"
     id="path4681"
     inkscape:connector-curvature="0" /><path
     style="opacity:1;fill:#ffff03;fill-opacity:1;stroke:#ffff33;stroke-width:0.10752688;stroke-opacity:1"
     d="m 7.3813324,52.666692 c -0.2330436,-0.233043 -0.327569,-0.430212 -0.327569,-0.683269 0,-0.322797 0.2911324,-0.646833 3.1471946,-3.502895 2.940037,-2.940038 3.172267,-3.147195 3.528111,-3.147195 0.624235,0 1.0778,0.596177 0.92031,1.209678 -0.03416,0.133064 -1.432195,1.61022 -3.106749,3.282567 -2.6380213,2.634547 -3.0973345,3.049183 -3.4391854,3.104658 -0.3404746,0.05525 -0.4394337,0.01913 -0.7221122,-0.263544 z"
     id="path4683"
     inkscape:connector-curvature="0" /><path
     style="opacity:1;fill:#ffff03;fill-opacity:1;stroke:#ffff33;stroke-width:0.10752688;stroke-opacity:1"
     d="M 5.6943009,41.033163 C 5.1235427,40.802834 4.9496368,40.051207 5.3602151,39.589235 5.599097,39.32045 8.472087,38.021505 8.8276988,38.021505 c 0.2305853,0 0.6120809,0.206759 0.7764084,0.42079 0.2025803,0.263854 0.1661268,0.906134 -0.065542,1.154802 -0.2027624,0.21764 -3.216046,1.548818 -3.4766346,1.535872 -0.075459,-0.0037 -0.2408925,-0.04866 -0.3676292,-0.09981 z"
     id="path4685"
     inkscape:connector-curvature="0" /></svg>